<?xml version="1.0" standalone="no"?>
<!DOCTYPE svg PUBLIC "-//W3C//DTD SVG 20010904//EN"
 "http://www.w3.org/TR/2001/REC-SVG-20010904/DTD/svg10.dtd">
<svg version="1.0" xmlns="http://www.w3.org/2000/svg"
 width="2908.000000pt" height="1567.000000pt" viewBox="0 0 2908.000000 1567.000000"
 preserveAspectRatio="xMidYMid meet">

<g transform="translate(0.000000,1567.000000) scale(0.100000,-0.100000)"
fill="#000000" stroke="none">
<path d="M16638 10321 c-75 -9 -142 -20 -147 -26 -6 -5 -13 -29 -17 -51 l-6
-42 53 -7 c80 -11 115 -50 123 -135 4 -36 7 -381 9 -768 l2 -702 -55 -16 c-30
-8 -63 -17 -72 -20 -17 -5 -38 -59 -38 -97 0 -18 12 -19 253 -15 204 3 259 7
289 20 40 18 58 43 58 82 0 24 -4 26 -40 26 -49 0 -98 19 -125 50 -20 22 -20
40 -26 814 -5 641 -8 801 -20 846 l-14 55 -45 1 c-25 1 -107 -6 -182 -15z"/>
<path d="M17503 10321 c-78 -9 -144 -19 -147 -22 -3 -3 -9 -26 -12 -51 l-6
-46 52 -7 c36 -5 62 -16 84 -35 l31 -28 6 -724 c4 -398 10 -744 14 -769 l7
-45 -75 -23 c-67 -20 -77 -26 -86 -53 -6 -17 -11 -42 -11 -55 l0 -25 253 4
c204 3 259 7 289 20 40 18 58 43 58 82 0 24 -4 26 -40 26 -57 0 -118 27 -135
61 -13 24 -15 135 -15 736 -1 676 -7 867 -31 940 -10 31 -14 33 -52 32 -23 -1
-106 -9 -184 -18z"/>
<path d="M13623 10225 c-224 -41 -420 -154 -551 -319 -317 -398 -259 -1000
122 -1291 161 -122 335 -181 568 -192 231 -11 442 48 606 172 113 85 172 188
137 241 -33 50 -54 47 -120 -15 -161 -153 -344 -231 -539 -231 -373 1 -631
246 -675 643 -20 178 13 360 95 517 81 157 201 262 359 316 67 23 98 27 190
28 174 0 313 -48 420 -145 48 -45 52 -51 74 -143 l23 -96 41 0 c166 0 207 194
93 444 -19 40 -38 76 -43 79 -5 3 -44 -15 -88 -40 l-79 -46 -91 32 c-49 17
-121 38 -160 46 -86 18 -283 18 -382 0z"/>
<path d="M22536 10205 c-22 -8 -51 -25 -65 -40 -23 -22 -26 -34 -26 -90 0 -59
3 -67 32 -97 29 -28 39 -32 85 -32 77 0 126 27 150 82 33 73 8 151 -57 178
-42 17 -69 17 -119 -1z"/>
<path d="M21502 9990 c-39 -9 -80 -44 -94 -79 -7 -19 -37 -228 -38 -262 0 -3
-40 -13 -90 -23 -90 -19 -90 -19 -100 -55 -5 -20 -10 -48 -10 -63 l0 -28 89 0
90 0 3 -407 c4 -368 6 -413 22 -458 52 -139 149 -204 307 -205 191 0 338 106
274 197 l-15 22 -65 -30 c-47 -22 -80 -31 -121 -31 -66 -1 -99 19 -129 78 -19
37 -20 62 -23 441 l-3 401 88 6 c129 9 193 23 220 48 23 22 47 84 37 100 -3 4
-81 8 -175 8 l-169 0 0 169 c0 196 1 195 -98 171z"/>
<path d="M15340 9660 c-128 -34 -214 -83 -306 -174 -134 -133 -191 -283 -181
-471 15 -262 175 -474 424 -560 373 -130 772 59 877 415 9 30 19 96 22 145 11
176 -45 331 -166 459 -79 82 -149 128 -263 169 -71 26 -99 30 -207 33 -101 3
-139 0 -200 -16z m343 -158 c147 -73 227 -231 227 -452 0 -214 -79 -373 -222
-451 -60 -33 -67 -34 -168 -34 -93 0 -112 3 -162 27 -105 49 -187 158 -223
295 -20 75 -20 251 0 328 42 162 132 267 268 311 26 9 74 13 128 11 74 -3 96
-8 152 -35z"/>
<path d="M18692 9666 c-97 -24 -192 -79 -263 -153 -76 -78 -112 -136 -145
-231 -108 -311 19 -674 281 -802 192 -94 467 -94 644 0 125 67 184 166 128
218 l-24 23 -77 -55 c-91 -65 -167 -96 -258 -103 -265 -22 -467 171 -468 450
l0 47 435 0 435 0 0 88 c0 48 -7 114 -15 145 -48 184 -187 324 -371 371 -74
19 -226 20 -302 2z m245 -141 c108 -32 179 -131 190 -266 l6 -69 -307 0 c-288
0 -307 1 -302 18 2 9 8 33 12 52 17 88 77 182 147 232 63 45 167 59 254 33z"/>
<path d="M20171 9665 c-145 -41 -289 -150 -364 -276 -63 -107 -90 -206 -90
-334 -1 -193 55 -338 177 -460 201 -200 519 -244 778 -108 125 65 194 167 154
228 -23 35 -41 31 -98 -20 -28 -25 -89 -64 -136 -88 -84 -41 -87 -42 -191 -42
-99 0 -111 2 -174 32 -117 56 -208 175 -236 311 -16 77 -14 234 5 305 34 131
113 236 219 290 48 24 76 31 141 35 89 5 181 -15 212 -46 9 -9 28 -61 41 -116
l23 -98 54 4 c98 8 134 71 110 188 -15 69 -73 210 -87 210 -5 0 -33 -11 -64
-24 l-55 -25 -58 21 c-77 28 -281 35 -361 13z"/>
<path d="M22467 9661 c-75 -9 -141 -21 -147 -27 -5 -5 -12 -27 -16 -50 l-6
-41 42 -7 c54 -9 96 -30 112 -59 10 -16 15 -126 20 -422 3 -220 10 -414 13
-431 l7 -30 -77 -23 c-81 -23 -95 -38 -95 -102 l0 -29 213 0 c264 0 322 8 360
51 17 18 27 39 25 52 -3 19 -12 23 -62 29 -64 8 -98 26 -118 60 -10 18 -14
137 -19 493 -4 339 -9 482 -19 513 -12 41 -14 42 -54 41 -22 -1 -103 -9 -179
-18z"/>
<path d="M25050 9664 c-187 -49 -334 -187 -404 -379 -38 -105 -48 -282 -21
-400 38 -173 155 -333 295 -402 240 -121 592 -89 748 67 59 59 69 135 21 160
-16 9 -29 3 -77 -33 -70 -55 -124 -83 -199 -102 -200 -52 -402 34 -488 209
-28 58 -55 170 -55 234 l0 42 435 0 435 0 0 88 c0 259 -146 454 -387 516 -76
20 -229 20 -303 0z m247 -139 c108 -32 181 -135 191 -267 l5 -68 -306 0 -306
0 6 33 c8 42 42 136 61 167 75 122 213 175 349 135z"/>
<path d="M23140 9624 c-6 -14 -10 -37 -10 -52 0 -24 7 -30 56 -47 l57 -20 238
-539 c131 -296 239 -540 241 -541 2 -2 24 1 50 7 l47 11 238 533 237 533 50
19 c46 17 52 23 63 62 7 23 10 47 7 51 -3 5 -85 9 -183 9 -198 0 -200 0 -204
-66 -2 -37 -2 -38 50 -54 29 -8 55 -19 59 -23 4 -3 -64 -173 -152 -378 -113
-265 -160 -366 -165 -352 -4 10 -73 173 -154 363 -81 190 -149 350 -152 357
-3 7 19 19 59 31 61 19 63 21 74 63 6 24 9 47 7 52 -2 4 -117 7 -254 7 l-249
0 -10 -26z"/>
<path d="M17565 7868 c-88 -11 -164 -23 -169 -28 -4 -4 -11 -28 -13 -53 l-5
-44 47 -5 c58 -7 96 -34 111 -79 7 -21 13 -144 15 -325 l4 -290 -65 53 c-140
116 -299 155 -474 118 -148 -31 -271 -114 -355 -240 -136 -203 -148 -490 -30
-716 105 -202 318 -322 544 -306 131 9 229 54 337 155 33 30 49 40 52 31 2 -8
12 -36 20 -64 9 -27 24 -64 35 -81 l18 -30 134 13 c73 7 148 18 166 24 39 13
63 43 63 80 0 22 -6 28 -31 33 -17 3 -40 6 -51 6 -34 0 -85 30 -99 58 -11 22
-15 170 -20 812 -6 843 -9 893 -54 897 -11 0 -92 -8 -180 -19z m-220 -832 c75
-34 134 -83 174 -142 l31 -47 0 -252 0 -251 -28 -45 c-40 -62 -113 -126 -180
-157 -49 -23 -70 -27 -147 -27 -78 0 -97 4 -146 28 -100 49 -180 155 -215 284
-19 71 -21 242 -4 315 37 160 146 282 285 319 58 16 167 4 230 -25z"/>
<path d="M13677 7774 c-43 -7 -80 -14 -83 -16 -3 -3 -541 -1394 -606 -1565
-19 -52 -20 -53 -81 -71 -66 -19 -78 -33 -91 -99 l-5 -33 219 0 c247 0 227 -6
243 77 6 31 6 32 -58 53 -36 12 -65 24 -65 26 0 2 37 101 81 219 l82 215 322
0 323 0 45 -117 c26 -65 64 -164 86 -220 l39 -103 -56 -16 c-71 -20 -80 -28
-91 -87 l-8 -47 272 0 272 0 11 51 c7 29 11 54 9 56 -2 2 -35 13 -72 26 l-69
22 -317 818 c-175 450 -319 820 -321 821 -1 2 -38 -3 -81 -10z m97 -688 c70
-192 125 -350 123 -352 -2 -3 -121 -3 -264 -2 l-260 3 130 358 c72 196 134
354 138 350 4 -5 64 -165 133 -357z"/>
<path d="M18483 7739 c-48 -23 -73 -67 -73 -126 0 -46 31 -100 66 -113 67 -26
158 -2 198 53 25 34 28 110 6 151 -30 57 -120 73 -197 35z"/>
<path d="M14920 7208 c-91 -11 -168 -23 -172 -26 -3 -4 -9 -28 -13 -53 l-7
-46 47 -5 c52 -6 93 -32 112 -69 9 -17 13 -107 13 -330 0 -169 4 -328 9 -355
18 -94 51 -163 106 -223 116 -125 292 -176 476 -137 94 20 163 59 240 132 36
35 69 64 72 64 4 0 7 -9 7 -20 0 -30 39 -142 58 -168 l17 -22 141 15 c192 20
214 30 214 95 l0 38 -53 6 c-64 8 -113 36 -129 74 -9 19 -14 171 -18 502 -7
534 -10 554 -64 545 -41 -6 -301 -35 -320 -35 -16 0 -41 -72 -33 -95 3 -7 27
-15 54 -19 53 -7 88 -31 104 -73 5 -13 9 -164 9 -335 l0 -311 -31 -49 c-40
-62 -107 -121 -177 -155 -42 -20 -74 -28 -136 -31 -101 -5 -168 19 -221 81
-66 77 -68 88 -75 537 -7 421 -14 492 -49 489 -9 -1 -90 -11 -181 -21z"/>
<path d="M18575 7220 c-27 -4 -103 -13 -167 -20 l-118 -12 -10 -37 c-17 -60
-14 -71 20 -71 16 0 47 -7 69 -16 68 -27 68 -29 75 -474 3 -217 7 -408 8 -425
3 -28 1 -30 -72 -50 -79 -23 -87 -31 -89 -97 l-1 -28 243 0 c135 0 258 5 279
10 42 12 78 51 78 85 0 21 -6 24 -60 30 -62 7 -100 28 -123 68 -9 16 -14 145
-18 492 -6 489 -12 556 -48 554 -9 -1 -38 -5 -66 -9z"/>
<path d="M19663 7219 c-373 -62 -586 -477 -448 -872 62 -178 189 -300 380
-364 70 -23 97 -26 215 -27 115 -1 146 2 210 23 134 42 223 100 254 166 22 45
13 92 -19 107 -20 9 -30 4 -75 -31 -195 -154 -458 -154 -611 -1 -79 79 -129
205 -129 327 l0 53 433 2 432 3 3 77 c13 348 -285 597 -645 537z m227 -160
c54 -24 105 -71 130 -120 22 -43 42 -152 34 -186 l-6 -23 -299 0 c-233 0 -299
3 -299 13 0 6 7 36 15 66 33 126 109 223 198 255 63 22 173 20 227 -5z"/>
<path d="M21405 7224 c-158 -33 -266 -99 -363 -223 l-19 -24 -6 63 c-4 35 -14
90 -23 122 -19 68 -1 65 -208 39 -153 -19 -166 -25 -166 -68 0 -12 -3 -28 -6
-36 -4 -12 7 -17 46 -22 69 -9 109 -45 121 -105 4 -25 9 -200 9 -390 1 -190 5
-367 9 -393 l8 -48 -74 -22 c-79 -23 -87 -30 -98 -90 l-7 -37 243 0 c134 0
259 4 278 10 46 13 81 48 81 80 0 25 -4 28 -52 34 -28 4 -64 14 -79 22 -56 29
-59 45 -59 366 l0 293 29 50 c40 69 119 140 199 178 58 28 77 32 147 31 131
-1 207 -55 248 -178 5 -17 13 -184 17 -371 4 -187 9 -346 11 -353 3 -9 -17
-20 -61 -34 -78 -24 -86 -31 -95 -85 l-7 -43 246 0 c303 0 346 12 346 93 0 22
-5 25 -52 31 -28 4 -64 14 -80 22 -54 28 -58 55 -58 371 0 158 -5 317 -11 353
-21 135 -106 258 -218 314 -86 44 -217 66 -296 50z"/>
<path d="M22913 7220 c-120 -22 -238 -86 -325 -178 -70 -73 -104 -127 -141
-227 -29 -75 -31 -89 -31 -220 -1 -128 2 -147 27 -220 72 -202 227 -345 437
-402 100 -27 264 -24 360 6 100 31 163 64 217 114 54 49 73 84 73 131 0 27 -6
40 -25 52 -24 16 -26 15 -82 -36 -75 -66 -173 -115 -262 -130 -134 -22 -285
29 -368 125 -130 152 -160 417 -68 612 82 174 230 258 410 232 36 -5 83 -18
104 -29 35 -17 40 -25 55 -87 9 -37 22 -85 27 -107 l10 -38 51 4 c130 13 153
150 56 342 l-33 65 -58 -26 -57 -26 -74 22 c-85 25 -225 35 -303 21z"/>
<path d="M24361 7219 c-76 -13 -183 -61 -247 -110 -152 -117 -234 -298 -234
-517 0 -197 55 -339 179 -463 83 -82 158 -126 271 -156 89 -24 290 -24 380 1
200 55 324 179 264 264 -21 30 -39 28 -87 -14 -226 -192 -565 -144 -689 100
-32 63 -58 166 -58 233 l0 43 433 2 432 3 3 87 c5 158 -44 283 -154 388 -125
120 -303 170 -493 139z m222 -155 c57 -19 122 -81 149 -141 11 -24 22 -78 25
-119 l6 -74 -307 0 -306 0 6 28 c37 165 86 241 186 291 50 25 74 31 128 31 36
0 87 -7 113 -16z"/>
<path d="M8872 6879 c-32 -10 -113 -55 -797 -444 -176 -100 -344 -194 -372
-209 -152 -76 -347 -75 -511 5 -35 17 -64 29 -66 27 -22 -32 -946 -2222 -940
-2228 8 -8 110 -67 854 -498 157 -90 302 -171 324 -178 48 -17 129 -17 178 0
20 7 419 233 885 502 466 268 1226 705 1688 971 462 266 856 497 875 512 19
16 47 52 63 81 23 44 27 65 27 129 0 91 -27 159 -82 207 -41 36 -1897 1099
-1955 1119 -44 16 -123 18 -171 4z"/>
</g>
</svg>
