<svg xmlns="http://www.w3.org/2000/svg" xmlns:xlink="http://www.w3.org/1999/xlink" viewBox="0 0 196 216">
  <defs>
    <linearGradient id="g2" x1="-51.36" y1="5682.49" x2="158.52" y2="5592.85" gradientTransform="translate(0 5783.92) scale(1 -1)" gradientUnits="userSpaceOnUse">
      <stop offset="0" stop-color="#02fafa"/>
      <stop offset="1" stop-color="#7b3fff"/>
    </linearGradient>
    <linearGradient id="g3" x1="188.95" y1="42.15" x2="98.15" y2="199.42" gradientUnits="userSpaceOnUse">
      <stop offset="0" stop-color="#7b3fff"/>
      <stop offset="1" stop-color="#3da6ff" stop-opacity=".55"/>
    </linearGradient>
    <linearGradient id="g1" x1="182.07" y1="5657.79" x2="90.2" y2="5756.36" gradientTransform="translate(-8.72 5762.7) rotate(.14) scale(1 -1)" gradientUnits="userSpaceOnUse">
      <stop offset="0" stop-color="#1695ff"/>
      <stop offset="1" stop-color="#02fafa"/>
    </linearGradient>
  </defs>
  <path fill="#02fafa" d="M10.42,145.42l43.81-23.84c2.34-1.22,3.81-3.65,3.81-6.29l.08-31.54c0-2.54,1.37-4.89,3.57-6.16l27.19-17.39c2.29-1.31,3.66-3.79,3.57-6.43l.2-46.91c-.19-5.36-6.01-8.59-10.66-5.92L3.8,43.97c-2.21,1.27-3.57,3.61-3.57,6.16L0,139.1c-.01,5.36,5.68,8.81,10.43,6.32h0Z"/>
  <path fill="url(#g2)" d="M105.63,146.03s0,0,0,0c-4.26,2.46-9.52,2.46-13.78,0l-24.77-14.63c-4.1-2.37-9.13-2.46-13.32-.25l-31.55,17.26c-9.59,5.06-9.85,18.7-.46,24.12l73.53,42.45c2.14,1.24,4.78,1.24,6.93,0l80.36-46.29c4.57-2.64,4.57-9.23,0-11.87l-44.37-25.35c-2.12-1.22-4.73-1.23-6.85,0l-25.71,14.56s0,0,0,0h0Z"/>
  <path fill="#7b3fff" fill-opacity=".4" d="M117.04,206.42l44.5-25.71c2.35-1.24,3.83-3.69,3.83-6.35l-2.79-45.84c0-2.57,1.37-4.93,3.59-6.22l27.56-15.91c2.31-1.33,3.69-3.83,3.58-6.49v-49.87c-.68-3.36-6.08-8.65-10.76-5.95l-78.88,47.44c-2.22,1.28-3.59,3.65-3.59,6.22l2.79,102.6c0,5.41,5.38,8.6,10.17,6.08h0Z"/>
  <path fill="url(#g1)" d="M192.97,46.18c1.54.89,2.49,2.55,2.49,4.33l-.23,93.48c0,1.78-.93,3.37-2.48,4.26-1.55.89-3.39.88-4.93-.01l-44.2-25.25c-1.52-.88-2.46-2.52-2.45-4.27l.07-30.91c0-3.13-.91-6.17-2.65-8.77-1.32-1.98-3.11-3.66-5.18-4.86l-25.35-15.46c-3.54-2.06-5.75-5.73-5.89-9.83l-.03-34.67c-.16-4.38,2-8.34,5.75-10.59,3.75-2.25,8.26-2.28,12.05-.08l73.03,42.63M193.94,44.51L120.91,1.89c-9.38-5.45-21.08,1.57-20.7,12.41l.03,34.67c.17,4.74,2.76,9.05,6.86,11.43l25.35,15.46c1.85,1.08,3.39,2.54,4.54,4.26,1.49,2.24,2.33,4.91,2.32,7.69l-.07,30.91c0,2.45,1.3,4.72,3.41,5.95l44.2,25.24c4.57,2.65,10.29-.63,10.3-5.91l.24-93.48c0-2.47-1.31-4.77-3.45-6.01h0Z"/>
</svg>
